ISO-10303-21;
HEADER;
/* Generated by software containing ST-Developer
 * from STEP Tools, Inc. (www.steptools.com) 
 */

FILE_DESCRIPTION(
/* description */ (''),
/* implementation_level */ '2;1');

FILE_NAME(
/* name */ 'Phase 4.step',
/* time_stamp */ '2026-04-01T03:37:46+01:00',
/* author */ (''),
/* organization */ (''),
/* preprocessor_version */ 'ST-DEVELOPER v20.1',
/* originating_system */ 'Autodesk Translation Framework v14.24.0.0',
/* authorisation */ '');

FILE_SCHEMA (('AUTOMOTIVE_DESIGN { 1 0 10303 214 3 1 1 }'));
ENDSEC;

DATA;
#10=MECHANICAL_DESIGN_GEOMETRIC_PRESENTATION_REPRESENTATION('',(#13,#14,
#15),#1053);
#11=SHAPE_REPRESENTATION_RELATIONSHIP('SRR','None',#1060,#12);
#12=ADVANCED_BREP_SHAPE_REPRESENTATION('',(#16,#17,#18),#1052);
#13=STYLED_ITEM('',(#1069),#16);
#14=STYLED_ITEM('',(#1069),#17);
#15=STYLED_ITEM('',(#1069),#18);
#16=MANIFOLD_SOLID_BREP('Body1',#655);
#17=MANIFOLD_SOLID_BREP('Body3',#656);
#18=MANIFOLD_SOLID_BREP('Body4',#657);
#19=FACE_BOUND('',#63,.T.);
#20=FACE_BOUND('',#64,.T.);
#21=FACE_BOUND('',#65,.T.);
#22=FACE_BOUND('',#97,.T.);
#23=FACE_OUTER_BOUND('',#61,.T.);
#24=FACE_OUTER_BOUND('',#62,.T.);
#25=FACE_OUTER_BOUND('',#66,.T.);
#26=FACE_OUTER_BOUND('',#67,.T.);
#27=FACE_OUTER_BOUND('',#68,.T.);
#28=FACE_OUTER_BOUND('',#69,.T.);
#29=FACE_OUTER_BOUND('',#70,.T.);
#30=FACE_OUTER_BOUND('',#71,.T.);
#31=FACE_OUTER_BOUND('',#72,.T.);
#32=FACE_OUTER_BOUND('',#73,.T.);
#33=FACE_OUTER_BOUND('',#74,.T.);
#34=FACE_OUTER_BOUND('',#75,.T.);
#35=FACE_OUTER_BOUND('',#76,.T.);
#36=FACE_OUTER_BOUND('',#77,.T.);
#37=FACE_OUTER_BOUND('',#78,.T.);
#38=FACE_OUTER_BOUND('',#79,.T.);
#39=FACE_OUTER_BOUND('',#80,.T.);
#40=FACE_OUTER_BOUND('',#81,.T.);
#41=FACE_OUTER_BOUND('',#82,.T.);
#42=FACE_OUTER_BOUND('',#83,.T.);
#43=FACE_OUTER_BOUND('',#84,.T.);
#44=FACE_OUTER_BOUND('',#85,.T.);
#45=FACE_OUTER_BOUND('',#86,.T.);
#46=FACE_OUTER_BOUND('',#87,.T.);
#47=FACE_OUTER_BOUND('',#88,.T.);
#48=FACE_OUTER_BOUND('',#89,.T.);
#49=FACE_OUTER_BOUND('',#90,.T.);
#50=FACE_OUTER_BOUND('',#91,.T.);
#51=FACE_OUTER_BOUND('',#92,.T.);
#52=FACE_OUTER_BOUND('',#93,.T.);
#53=FACE_OUTER_BOUND('',#94,.T.);
#54=FACE_OUTER_BOUND('',#95,.T.);
#55=FACE_OUTER_BOUND('',#96,.T.);
#56=FACE_OUTER_BOUND('',#98,.T.);
#57=FACE_OUTER_BOUND('',#99,.T.);
#58=FACE_OUTER_BOUND('',#100,.T.);
#59=FACE_OUTER_BOUND('',#101,.T.);
#60=FACE_OUTER_BOUND('',#102,.T.);
#61=EDGE_LOOP('',(#411,#412,#413,#414));
#62=EDGE_LOOP('',(#415,#416,#417,#418));
#63=EDGE_LOOP('',(#419,#420,#421,#422));
#64=EDGE_LOOP('',(#423,#424,#425,#426));
#65=EDGE_LOOP('',(#427,#428,#429,#430));
#66=EDGE_LOOP('',(#431,#432,#433,#434));
#67=EDGE_LOOP('',(#435,#436,#437,#438));
#68=EDGE_LOOP('',(#439,#440,#441,#442));
#69=EDGE_LOOP('',(#443,#444,#445,#446));
#70=EDGE_LOOP('',(#447,#448,#449,#450));
#71=EDGE_LOOP('',(#451,#452,#453,#454));
#72=EDGE_LOOP('',(#455,#456,#457,#458));
#73=EDGE_LOOP('',(#459,#460,#461,#462));
#74=EDGE_LOOP('',(#463,#464,#465,#466));
#75=EDGE_LOOP('',(#467,#468,#469,#470));
#76=EDGE_LOOP('',(#471,#472,#473,#474));
#77=EDGE_LOOP('',(#475,#476,#477,#478));
#78=EDGE_LOOP('',(#479,#480,#481,#482));
#79=EDGE_LOOP('',(#483,#484,#485,#486));
#80=EDGE_LOOP('',(#487,#488,#489,#490));
#81=EDGE_LOOP('',(#491,#492,#493,#494));
#82=EDGE_LOOP('',(#495,#496,#497,#498));
#83=EDGE_LOOP('',(#499,#500,#501,#502));
#84=EDGE_LOOP('',(#503,#504,#505,#506));
#85=EDGE_LOOP('',(#507,#508,#509,#510));
#86=EDGE_LOOP('',(#511,#512,#513,#514));
#87=EDGE_LOOP('',(#515,#516,#517,#518));
#88=EDGE_LOOP('',(#519,#520,#521,#522));
#89=EDGE_LOOP('',(#523,#524,#525,#526));
#90=EDGE_LOOP('',(#527,#528,#529,#530));
#91=EDGE_LOOP('',(#531,#532,#533,#534));
#92=EDGE_LOOP('',(#535,#536,#537,#538));
#93=EDGE_LOOP('',(#539,#540,#541,#542));
#94=EDGE_LOOP('',(#543,#544,#545,#546));
#95=EDGE_LOOP('',(#547,#548,#549,#550));
#96=EDGE_LOOP('',(#551,#552,#553,#554));
#97=EDGE_LOOP('',(#555,#556,#557,#558));
#98=EDGE_LOOP('',(#559,#560,#561,#562));
#99=EDGE_LOOP('',(#563,#564,#565,#566));
#100=EDGE_LOOP('',(#567,#568,#569,#570));
#101=EDGE_LOOP('',(#571,#572,#573,#574));
#102=EDGE_LOOP('',(#575,#576,#577,#578));
#103=LINE('',#875,#187);
#104=LINE('',#877,#188);
#105=LINE('',#879,#189);
#106=LINE('',#880,#190);
#107=LINE('',#883,#191);
#108=LINE('',#885,#192);
#109=LINE('',#886,#193);
#110=LINE('',#889,#194);
#111=LINE('',#891,#195);
#112=LINE('',#893,#196);
#113=LINE('',#894,#197);
#114=LINE('',#897,#198);
#115=LINE('',#899,#199);
#116=LINE('',#901,#200);
#117=LINE('',#902,#201);
#118=LINE('',#905,#202);
#119=LINE('',#907,#203);
#120=LINE('',#909,#204);
#121=LINE('',#910,#205);
#122=LINE('',#913,#206);
#123=LINE('',#914,#207);
#124=LINE('',#918,#208);
#125=LINE('',#920,#209);
#126=LINE('',#922,#210);
#127=LINE('',#923,#211);
#128=LINE('',#925,#212);
#129=LINE('',#926,#213);
#130=LINE('',#928,#214);
#131=LINE('',#930,#215);
#132=LINE('',#935,#216);
#133=LINE('',#937,#217);
#134=LINE('',#939,#218);
#135=LINE('',#940,#219);
#136=LINE('',#942,#220);
#137=LINE('',#943,#221);
#138=LINE('',#945,#222);
#139=LINE('',#947,#223);
#140=LINE('',#952,#224);
#141=LINE('',#954,#225);
#142=LINE('',#956,#226);
#143=LINE('',#957,#227);
#144=LINE('',#959,#228);
#145=LINE('',#960,#229);
#146=LINE('',#962,#230);
#147=LINE('',#964,#231);
#148=LINE('',#968,#232);
#149=LINE('',#969,#233);
#150=LINE('',#971,#234);
#151=LINE('',#976,#235);
#152=LINE('',#978,#236);
#153=LINE('',#980,#237);
#154=LINE('',#981,#238);
#155=LINE('',#985,#239);
#156=LINE('',#987,#240);
#157=LINE('',#989,#241);
#158=LINE('',#990,#242);
#159=LINE('',#992,#243);
#160=LINE('',#993,#244);
#161=LINE('',#995,#245);
#162=LINE('',#997,#246);
#163=LINE('',#1002,#247);
#164=LINE('',#1004,#248);
#165=LINE('',#1006,#249);
#166=LINE('',#1007,#250);
#167=LINE('',#1010,#251);
#168=LINE('',#1012,#252);
#169=LINE('',#1013,#253);
#170=LINE('',#1016,#254);
#171=LINE('',#1017,#255);
#172=LINE('',#1020,#256);
#173=LINE('',#1021,#257);
#174=LINE('',#1023,#258);
#175=LINE('',#1027,#259);
#176=LINE('',#1029,#260);
#177=LINE('',#1031,#261);
#178=LINE('',#1032,#262);
#179=LINE('',#1035,#263);
#180=LINE('',#1037,#264);
#181=LINE('',#1038,#265);
#182=LINE('',#1041,#266);
#183=LINE('',#1042,#267);
#184=LINE('',#1045,#268);
#185=LINE('',#1046,#269);
#186=LINE('',#1048,#270);
#187=VECTOR('',#713,10.);
#188=VECTOR('',#714,10.);
#189=VECTOR('',#715,10.);
#190=VECTOR('',#716,10.);
#191=VECTOR('',#719,10.);
#192=VECTOR('',#720,10.);
#193=VECTOR('',#721,10.);
#194=VECTOR('',#722,10.);
#195=VECTOR('',#723,10.);
#196=VECTOR('',#724,10.);
#197=VECTOR('',#725,10.);
#198=VECTOR('',#726,10.);
#199=VECTOR('',#727,10.);
#200=VECTOR('',#728,10.);
#201=VECTOR('',#729,10.);
#202=VECTOR('',#730,10.);
#203=VECTOR('',#731,10.);
#204=VECTOR('',#732,10.);
#205=VECTOR('',#733,10.);
#206=VECTOR('',#736,10.);
#207=VECTOR('',#737,10.);
#208=VECTOR('',#740,10.);
#209=VECTOR('',#741,10.);
#210=VECTOR('',#742,10.);
#211=VECTOR('',#743,10.);
#212=VECTOR('',#746,10.);
#213=VECTOR('',#747,10.);
#214=VECTOR('',#750,10.);
#215=VECTOR('',#753,10.);
#216=VECTOR('',#758,10.);
#217=VECTOR('',#759,10.);
#218=VECTOR('',#760,10.);
#219=VECTOR('',#761,10.);
#220=VECTOR('',#764,10.);
#221=VECTOR('',#765,10.);
#222=VECTOR('',#768,10.);
#223=VECTOR('',#771,10.);
#224=VECTOR('',#776,10.);
#225=VECTOR('',#777,10.);
#226=VECTOR('',#778,10.);
#227=VECTOR('',#779,10.);
#228=VECTOR('',#782,10.);
#229=VECTOR('',#783,10.);
#230=VECTOR('',#786,10.);
#231=VECTOR('',#789,10.);
#232=VECTOR('',#794,10.);
#233=VECTOR('',#795,10.);
#234=VECTOR('',#798,10.);
#235=VECTOR('',#803,10.);
#236=VECTOR('',#804,10.);
#237=VECTOR('',#805,10.);
#238=VECTOR('',#806,10.);
#239=VECTOR('',#809,10.);
#240=VECTOR('',#810,10.);
#241=VECTOR('',#811,10.);
#242=VECTOR('',#812,10.);
#243=VECTOR('',#815,10.);
#244=VECTOR('',#816,10.);
#245=VECTOR('',#819,10.);
#246=VECTOR('',#822,10.);
#247=VECTOR('',#827,10.);
#248=VECTOR('',#828,10.);
#249=VECTOR('',#829,10.);
#250=VECTOR('',#830,10.);
#251=VECTOR('',#833,10.);
#252=VECTOR('',#834,10.);
#253=VECTOR('',#835,10.);
#254=VECTOR('',#838,10.);
#255=VECTOR('',#839,10.);
#256=VECTOR('',#842,10.);
#257=VECTOR('',#843,10.);
#258=VECTOR('',#846,10.);
#259=VECTOR('',#849,10.);
#260=VECTOR('',#850,10.);
#261=VECTOR('',#851,10.);
#262=VECTOR('',#852,10.);
#263=VECTOR('',#855,10.);
#264=VECTOR('',#856,10.);
#265=VECTOR('',#857,10.);
#266=VECTOR('',#860,10.);
#267=VECTOR('',#861,10.);
#268=VECTOR('',#864,10.);
#269=VECTOR('',#865,10.);
#270=VECTOR('',#868,10.);
#271=VERTEX_POINT('',#873);
#272=VERTEX_POINT('',#874);
#273=VERTEX_POINT('',#876);
#274=VERTEX_POINT('',#878);
#275=VERTEX_POINT('',#882);
#276=VERTEX_POINT('',#884);
#277=VERTEX_POINT('',#887);
#278=VERTEX_POINT('',#888);
#279=VERTEX_POINT('',#890);
#280=VERTEX_POINT('',#892);
#281=VERTEX_POINT('',#895);
#282=VERTEX_POINT('',#896);
#283=VERTEX_POINT('',#898);
#284=VERTEX_POINT('',#900);
#285=VERTEX_POINT('',#903);
#286=VERTEX_POINT('',#904);
#287=VERTEX_POINT('',#906);
#288=VERTEX_POINT('',#908);
#289=VERTEX_POINT('',#912);
#290=VERTEX_POINT('',#916);
#291=VERTEX_POINT('',#917);
#292=VERTEX_POINT('',#919);
#293=VERTEX_POINT('',#921);
#294=VERTEX_POINT('',#933);
#295=VERTEX_POINT('',#934);
#296=VERTEX_POINT('',#936);
#297=VERTEX_POINT('',#938);
#298=VERTEX_POINT('',#950);
#299=VERTEX_POINT('',#951);
#300=VERTEX_POINT('',#953);
#301=VERTEX_POINT('',#955);
#302=VERTEX_POINT('',#967);
#303=VERTEX_POINT('',#974);
#304=VERTEX_POINT('',#975);
#305=VERTEX_POINT('',#977);
#306=VERTEX_POINT('',#979);
#307=VERTEX_POINT('',#983);
#308=VERTEX_POINT('',#984);
#309=VERTEX_POINT('',#986);
#310=VERTEX_POINT('',#988);
#311=VERTEX_POINT('',#1000);
#312=VERTEX_POINT('',#1001);
#313=VERTEX_POINT('',#1003);
#314=VERTEX_POINT('',#1005);
#315=VERTEX_POINT('',#1009);
#316=VERTEX_POINT('',#1011);
#317=VERTEX_POINT('',#1015);
#318=VERTEX_POINT('',#1019);
#319=VERTEX_POINT('',#1025);
#320=VERTEX_POINT('',#1026);
#321=VERTEX_POINT('',#1028);
#322=VERTEX_POINT('',#1030);
#323=VERTEX_POINT('',#1034);
#324=VERTEX_POINT('',#1036);
#325=VERTEX_POINT('',#1040);
#326=VERTEX_POINT('',#1044);
#327=EDGE_CURVE('',#271,#272,#103,.T.);
#328=EDGE_CURVE('',#273,#271,#104,.T.);
#329=EDGE_CURVE('',#274,#273,#105,.T.);
#330=EDGE_CURVE('',#272,#274,#106,.T.);
#331=EDGE_CURVE('',#273,#275,#107,.T.);
#332=EDGE_CURVE('',#275,#276,#108,.T.);
#333=EDGE_CURVE('',#276,#274,#109,.T.);
#334=EDGE_CURVE('',#277,#278,#110,.T.);
#335=EDGE_CURVE('',#278,#279,#111,.T.);
#336=EDGE_CURVE('',#279,#280,#112,.T.);
#337=EDGE_CURVE('',#280,#277,#113,.T.);
#338=EDGE_CURVE('',#281,#282,#114,.T.);
#339=EDGE_CURVE('',#282,#283,#115,.T.);
#340=EDGE_CURVE('',#283,#284,#116,.T.);
#341=EDGE_CURVE('',#284,#281,#117,.T.);
#342=EDGE_CURVE('',#285,#286,#118,.T.);
#343=EDGE_CURVE('',#286,#287,#119,.T.);
#344=EDGE_CURVE('',#287,#288,#120,.T.);
#345=EDGE_CURVE('',#288,#285,#121,.T.);
#346=EDGE_CURVE('',#289,#271,#122,.T.);
#347=EDGE_CURVE('',#275,#289,#123,.T.);
#348=EDGE_CURVE('',#290,#291,#124,.T.);
#349=EDGE_CURVE('',#291,#292,#125,.T.);
#350=EDGE_CURVE('',#292,#293,#126,.T.);
#351=EDGE_CURVE('',#293,#290,#127,.T.);
#352=EDGE_CURVE('',#293,#286,#128,.T.);
#353=EDGE_CURVE('',#290,#285,#129,.T.);
#354=EDGE_CURVE('',#292,#287,#130,.T.);
#355=EDGE_CURVE('',#291,#288,#131,.T.);
#356=EDGE_CURVE('',#294,#295,#132,.T.);
#357=EDGE_CURVE('',#295,#296,#133,.T.);
#358=EDGE_CURVE('',#296,#297,#134,.T.);
#359=EDGE_CURVE('',#297,#294,#135,.T.);
#360=EDGE_CURVE('',#297,#282,#136,.T.);
#361=EDGE_CURVE('',#294,#281,#137,.T.);
#362=EDGE_CURVE('',#296,#283,#138,.T.);
#363=EDGE_CURVE('',#295,#284,#139,.T.);
#364=EDGE_CURVE('',#298,#299,#140,.T.);
#365=EDGE_CURVE('',#299,#300,#141,.T.);
#366=EDGE_CURVE('',#300,#301,#142,.T.);
#367=EDGE_CURVE('',#301,#298,#143,.T.);
#368=EDGE_CURVE('',#301,#278,#144,.T.);
#369=EDGE_CURVE('',#298,#277,#145,.T.);
#370=EDGE_CURVE('',#300,#279,#146,.T.);
#371=EDGE_CURVE('',#299,#280,#147,.T.);
#372=EDGE_CURVE('',#272,#302,#148,.T.);
#373=EDGE_CURVE('',#302,#289,#149,.T.);
#374=EDGE_CURVE('',#276,#302,#150,.T.);
#375=EDGE_CURVE('',#303,#304,#151,.T.);
#376=EDGE_CURVE('',#304,#305,#152,.T.);
#377=EDGE_CURVE('',#305,#306,#153,.T.);
#378=EDGE_CURVE('',#306,#303,#154,.T.);
#379=EDGE_CURVE('',#307,#308,#155,.T.);
#380=EDGE_CURVE('',#308,#309,#156,.T.);
#381=EDGE_CURVE('',#309,#310,#157,.T.);
#382=EDGE_CURVE('',#310,#307,#158,.T.);
#383=EDGE_CURVE('',#306,#309,#159,.T.);
#384=EDGE_CURVE('',#303,#308,#160,.T.);
#385=EDGE_CURVE('',#305,#310,#161,.T.);
#386=EDGE_CURVE('',#304,#307,#162,.T.);
#387=EDGE_CURVE('',#311,#312,#163,.T.);
#388=EDGE_CURVE('',#311,#313,#164,.F.);
#389=EDGE_CURVE('',#313,#314,#165,.F.);
#390=EDGE_CURVE('',#312,#314,#166,.T.);
#391=EDGE_CURVE('',#312,#315,#167,.T.);
#392=EDGE_CURVE('',#314,#316,#168,.F.);
#393=EDGE_CURVE('',#315,#316,#169,.T.);
#394=EDGE_CURVE('',#317,#313,#170,.T.);
#395=EDGE_CURVE('',#316,#317,#171,.T.);
#396=EDGE_CURVE('',#315,#318,#172,.T.);
#397=EDGE_CURVE('',#318,#317,#173,.T.);
#398=EDGE_CURVE('',#318,#311,#174,.T.);
#399=EDGE_CURVE('',#319,#320,#175,.T.);
#400=EDGE_CURVE('',#321,#319,#176,.T.);
#401=EDGE_CURVE('',#322,#321,#177,.T.);
#402=EDGE_CURVE('',#320,#322,#178,.T.);
#403=EDGE_CURVE('',#322,#323,#179,.T.);
#404=EDGE_CURVE('',#324,#323,#180,.T.);
#405=EDGE_CURVE('',#320,#324,#181,.T.);
#406=EDGE_CURVE('',#321,#325,#182,.T.);
#407=EDGE_CURVE('',#323,#325,#183,.T.);
#408=EDGE_CURVE('',#326,#324,#184,.T.);
#409=EDGE_CURVE('',#325,#326,#185,.T.);
#410=EDGE_CURVE('',#319,#326,#186,.T.);
#411=ORIENTED_EDGE('',*,*,#327,.F.);
#412=ORIENTED_EDGE('',*,*,#328,.F.);
#413=ORIENTED_EDGE('',*,*,#329,.F.);
#414=ORIENTED_EDGE('',*,*,#330,.F.);
#415=ORIENTED_EDGE('',*,*,#329,.T.);
#416=ORIENTED_EDGE('',*,*,#331,.T.);
#417=ORIENTED_EDGE('',*,*,#332,.T.);
#418=ORIENTED_EDGE('',*,*,#333,.T.);
#419=ORIENTED_EDGE('',*,*,#334,.T.);
#420=ORIENTED_EDGE('',*,*,#335,.T.);
#421=ORIENTED_EDGE('',*,*,#336,.T.);
#422=ORIENTED_EDGE('',*,*,#337,.T.);
#423=ORIENTED_EDGE('',*,*,#338,.T.);
#424=ORIENTED_EDGE('',*,*,#339,.T.);
#425=ORIENTED_EDGE('',*,*,#340,.T.);
#426=ORIENTED_EDGE('',*,*,#341,.T.);
#427=ORIENTED_EDGE('',*,*,#342,.T.);
#428=ORIENTED_EDGE('',*,*,#343,.T.);
#429=ORIENTED_EDGE('',*,*,#344,.T.);
#430=ORIENTED_EDGE('',*,*,#345,.T.);
#431=ORIENTED_EDGE('',*,*,#328,.T.);
#432=ORIENTED_EDGE('',*,*,#346,.F.);
#433=ORIENTED_EDGE('',*,*,#347,.F.);
#434=ORIENTED_EDGE('',*,*,#331,.F.);
#435=ORIENTED_EDGE('',*,*,#348,.T.);
#436=ORIENTED_EDGE('',*,*,#349,.T.);
#437=ORIENTED_EDGE('',*,*,#350,.T.);
#438=ORIENTED_EDGE('',*,*,#351,.T.);
#439=ORIENTED_EDGE('',*,*,#352,.T.);
#440=ORIENTED_EDGE('',*,*,#342,.F.);
#441=ORIENTED_EDGE('',*,*,#353,.F.);
#442=ORIENTED_EDGE('',*,*,#351,.F.);
#443=ORIENTED_EDGE('',*,*,#354,.T.);
#444=ORIENTED_EDGE('',*,*,#343,.F.);
#445=ORIENTED_EDGE('',*,*,#352,.F.);
#446=ORIENTED_EDGE('',*,*,#350,.F.);
#447=ORIENTED_EDGE('',*,*,#355,.T.);
#448=ORIENTED_EDGE('',*,*,#344,.F.);
#449=ORIENTED_EDGE('',*,*,#354,.F.);
#450=ORIENTED_EDGE('',*,*,#349,.F.);
#451=ORIENTED_EDGE('',*,*,#353,.T.);
#452=ORIENTED_EDGE('',*,*,#345,.F.);
#453=ORIENTED_EDGE('',*,*,#355,.F.);
#454=ORIENTED_EDGE('',*,*,#348,.F.);
#455=ORIENTED_EDGE('',*,*,#356,.T.);
#456=ORIENTED_EDGE('',*,*,#357,.T.);
#457=ORIENTED_EDGE('',*,*,#358,.T.);
#458=ORIENTED_EDGE('',*,*,#359,.T.);
#459=ORIENTED_EDGE('',*,*,#360,.T.);
#460=ORIENTED_EDGE('',*,*,#338,.F.);
#461=ORIENTED_EDGE('',*,*,#361,.F.);
#462=ORIENTED_EDGE('',*,*,#359,.F.);
#463=ORIENTED_EDGE('',*,*,#362,.T.);
#464=ORIENTED_EDGE('',*,*,#339,.F.);
#465=ORIENTED_EDGE('',*,*,#360,.F.);
#466=ORIENTED_EDGE('',*,*,#358,.F.);
#467=ORIENTED_EDGE('',*,*,#363,.T.);
#468=ORIENTED_EDGE('',*,*,#340,.F.);
#469=ORIENTED_EDGE('',*,*,#362,.F.);
#470=ORIENTED_EDGE('',*,*,#357,.F.);
#471=ORIENTED_EDGE('',*,*,#361,.T.);
#472=ORIENTED_EDGE('',*,*,#341,.F.);
#473=ORIENTED_EDGE('',*,*,#363,.F.);
#474=ORIENTED_EDGE('',*,*,#356,.F.);
#475=ORIENTED_EDGE('',*,*,#364,.T.);
#476=ORIENTED_EDGE('',*,*,#365,.T.);
#477=ORIENTED_EDGE('',*,*,#366,.T.);
#478=ORIENTED_EDGE('',*,*,#367,.T.);
#479=ORIENTED_EDGE('',*,*,#368,.T.);
#480=ORIENTED_EDGE('',*,*,#334,.F.);
#481=ORIENTED_EDGE('',*,*,#369,.F.);
#482=ORIENTED_EDGE('',*,*,#367,.F.);
#483=ORIENTED_EDGE('',*,*,#370,.T.);
#484=ORIENTED_EDGE('',*,*,#335,.F.);
#485=ORIENTED_EDGE('',*,*,#368,.F.);
#486=ORIENTED_EDGE('',*,*,#366,.F.);
#487=ORIENTED_EDGE('',*,*,#371,.T.);
#488=ORIENTED_EDGE('',*,*,#336,.F.);
#489=ORIENTED_EDGE('',*,*,#370,.F.);
#490=ORIENTED_EDGE('',*,*,#365,.F.);
#491=ORIENTED_EDGE('',*,*,#369,.T.);
#492=ORIENTED_EDGE('',*,*,#337,.F.);
#493=ORIENTED_EDGE('',*,*,#371,.F.);
#494=ORIENTED_EDGE('',*,*,#364,.F.);
#495=ORIENTED_EDGE('',*,*,#327,.T.);
#496=ORIENTED_EDGE('',*,*,#372,.T.);
#497=ORIENTED_EDGE('',*,*,#373,.T.);
#498=ORIENTED_EDGE('',*,*,#346,.T.);
#499=ORIENTED_EDGE('',*,*,#330,.T.);
#500=ORIENTED_EDGE('',*,*,#333,.F.);
#501=ORIENTED_EDGE('',*,*,#374,.T.);
#502=ORIENTED_EDGE('',*,*,#372,.F.);
#503=ORIENTED_EDGE('',*,*,#347,.T.);
#504=ORIENTED_EDGE('',*,*,#373,.F.);
#505=ORIENTED_EDGE('',*,*,#374,.F.);
#506=ORIENTED_EDGE('',*,*,#332,.F.);
#507=ORIENTED_EDGE('',*,*,#375,.T.);
#508=ORIENTED_EDGE('',*,*,#376,.T.);
#509=ORIENTED_EDGE('',*,*,#377,.T.);
#510=ORIENTED_EDGE('',*,*,#378,.T.);
#511=ORIENTED_EDGE('',*,*,#379,.T.);
#512=ORIENTED_EDGE('',*,*,#380,.T.);
#513=ORIENTED_EDGE('',*,*,#381,.T.);
#514=ORIENTED_EDGE('',*,*,#382,.T.);
#515=ORIENTED_EDGE('',*,*,#383,.T.);
#516=ORIENTED_EDGE('',*,*,#380,.F.);
#517=ORIENTED_EDGE('',*,*,#384,.F.);
#518=ORIENTED_EDGE('',*,*,#378,.F.);
#519=ORIENTED_EDGE('',*,*,#385,.T.);
#520=ORIENTED_EDGE('',*,*,#381,.F.);
#521=ORIENTED_EDGE('',*,*,#383,.F.);
#522=ORIENTED_EDGE('',*,*,#377,.F.);
#523=ORIENTED_EDGE('',*,*,#386,.T.);
#524=ORIENTED_EDGE('',*,*,#382,.F.);
#525=ORIENTED_EDGE('',*,*,#385,.F.);
#526=ORIENTED_EDGE('',*,*,#376,.F.);
#527=ORIENTED_EDGE('',*,*,#384,.T.);
#528=ORIENTED_EDGE('',*,*,#379,.F.);
#529=ORIENTED_EDGE('',*,*,#386,.F.);
#530=ORIENTED_EDGE('',*,*,#375,.F.);
#531=ORIENTED_EDGE('',*,*,#387,.F.);
#532=ORIENTED_EDGE('',*,*,#388,.T.);
#533=ORIENTED_EDGE('',*,*,#389,.T.);
#534=ORIENTED_EDGE('',*,*,#390,.F.);
#535=ORIENTED_EDGE('',*,*,#391,.F.);
#536=ORIENTED_EDGE('',*,*,#390,.T.);
#537=ORIENTED_EDGE('',*,*,#392,.T.);
#538=ORIENTED_EDGE('',*,*,#393,.F.);
#539=ORIENTED_EDGE('',*,*,#394,.F.);
#540=ORIENTED_EDGE('',*,*,#395,.F.);
#541=ORIENTED_EDGE('',*,*,#392,.F.);
#542=ORIENTED_EDGE('',*,*,#389,.F.);
#543=ORIENTED_EDGE('',*,*,#396,.F.);
#544=ORIENTED_EDGE('',*,*,#393,.T.);
#545=ORIENTED_EDGE('',*,*,#395,.T.);
#546=ORIENTED_EDGE('',*,*,#397,.F.);
#547=ORIENTED_EDGE('',*,*,#398,.F.);
#548=ORIENTED_EDGE('',*,*,#397,.T.);
#549=ORIENTED_EDGE('',*,*,#394,.T.);
#550=ORIENTED_EDGE('',*,*,#388,.F.);
#551=ORIENTED_EDGE('',*,*,#399,.F.);
#552=ORIENTED_EDGE('',*,*,#400,.F.);
#553=ORIENTED_EDGE('',*,*,#401,.F.);
#554=ORIENTED_EDGE('',*,*,#402,.F.);
#555=ORIENTED_EDGE('',*,*,#387,.T.);
#556=ORIENTED_EDGE('',*,*,#391,.T.);
#557=ORIENTED_EDGE('',*,*,#396,.T.);
#558=ORIENTED_EDGE('',*,*,#398,.T.);
#559=ORIENTED_EDGE('',*,*,#402,.T.);
#560=ORIENTED_EDGE('',*,*,#403,.T.);
#561=ORIENTED_EDGE('',*,*,#404,.F.);
#562=ORIENTED_EDGE('',*,*,#405,.F.);
#563=ORIENTED_EDGE('',*,*,#401,.T.);
#564=ORIENTED_EDGE('',*,*,#406,.T.);
#565=ORIENTED_EDGE('',*,*,#407,.F.);
#566=ORIENTED_EDGE('',*,*,#403,.F.);
#567=ORIENTED_EDGE('',*,*,#408,.T.);
#568=ORIENTED_EDGE('',*,*,#404,.T.);
#569=ORIENTED_EDGE('',*,*,#407,.T.);
#570=ORIENTED_EDGE('',*,*,#409,.T.);
#571=ORIENTED_EDGE('',*,*,#400,.T.);
#572=ORIENTED_EDGE('',*,*,#410,.T.);
#573=ORIENTED_EDGE('',*,*,#409,.F.);
#574=ORIENTED_EDGE('',*,*,#406,.F.);
#575=ORIENTED_EDGE('',*,*,#399,.T.);
#576=ORIENTED_EDGE('',*,*,#405,.T.);
#577=ORIENTED_EDGE('',*,*,#408,.F.);
#578=ORIENTED_EDGE('',*,*,#410,.F.);
#579=PLANE('',#671);
#580=PLANE('',#672);
#581=PLANE('',#673);
#582=PLANE('',#674);
#583=PLANE('',#675);
#584=PLANE('',#676);
#585=PLANE('',#677);
#586=PLANE('',#678);
#587=PLANE('',#679);
#588=PLANE('',#680);
#589=PLANE('',#681);
#590=PLANE('',#682);
#591=PLANE('',#683);
#592=PLANE('',#684);
#593=PLANE('',#685);
#594=PLANE('',#686);
#595=PLANE('',#687);
#596=PLANE('',#688);
#597=PLANE('',#689);
#598=PLANE('',#690);
#599=PLANE('',#691);
#600=PLANE('',#692);
#601=PLANE('',#693);
#602=PLANE('',#694);
#603=PLANE('',#695);
#604=PLANE('',#696);
#605=PLANE('',#697);
#606=PLANE('',#698);
#607=PLANE('',#699);
#608=PLANE('',#700);
#609=PLANE('',#701);
#610=PLANE('',#702);
#611=PLANE('',#703);
#612=PLANE('',#704);
#613=PLANE('',#705);
#614=PLANE('',#706);
#615=PLANE('',#707);
#616=PLANE('',#708);
#617=ADVANCED_FACE('',(#23),#579,.F.);
#618=ADVANCED_FACE('',(#24,#19,#20,#21),#580,.T.);
#619=ADVANCED_FACE('',(#25),#581,.F.);
#620=ADVANCED_FACE('',(#26),#582,.T.);
#621=ADVANCED_FACE('',(#27),#583,.F.);
#622=ADVANCED_FACE('',(#28),#584,.F.);
#623=ADVANCED_FACE('',(#29),#585,.F.);
#624=ADVANCED_FACE('',(#30),#586,.F.);
#625=ADVANCED_FACE('',(#31),#587,.T.);
#626=ADVANCED_FACE('',(#32),#588,.F.);
#627=ADVANCED_FACE('',(#33),#589,.F.);
#628=ADVANCED_FACE('',(#34),#590,.F.);
#629=ADVANCED_FACE('',(#35),#591,.F.);
#630=ADVANCED_FACE('',(#36),#592,.T.);
#631=ADVANCED_FACE('',(#37),#593,.F.);
#632=ADVANCED_FACE('',(#38),#594,.F.);
#633=ADVANCED_FACE('',(#39),#595,.F.);
#634=ADVANCED_FACE('',(#40),#596,.F.);
#635=ADVANCED_FACE('',(#41),#597,.F.);
#636=ADVANCED_FACE('',(#42),#598,.F.);
#637=ADVANCED_FACE('',(#43),#599,.F.);
#638=ADVANCED_FACE('',(#44),#600,.T.);
#639=ADVANCED_FACE('',(#45),#601,.F.);
#640=ADVANCED_FACE('',(#46),#602,.F.);
#641=ADVANCED_FACE('',(#47),#603,.F.);
#642=ADVANCED_FACE('',(#48),#604,.F.);
#643=ADVANCED_FACE('',(#49),#605,.F.);
#644=ADVANCED_FACE('',(#50),#606,.T.);
#645=ADVANCED_FACE('',(#51),#607,.T.);
#646=ADVANCED_FACE('',(#52),#608,.T.);
#647=ADVANCED_FACE('',(#53),#609,.T.);
#648=ADVANCED_FACE('',(#54),#610,.T.);
#649=ADVANCED_FACE('',(#55,#22),#611,.F.);
#650=ADVANCED_FACE('',(#56),#612,.F.);
#651=ADVANCED_FACE('',(#57),#613,.F.);
#652=ADVANCED_FACE('',(#58),#614,.F.);
#653=ADVANCED_FACE('',(#59),#615,.F.);
#654=ADVANCED_FACE('',(#60),#616,.F.);
#655=CLOSED_SHELL('',(#617,#618,#619,#620,#621,#622,#623,#624,#625,#626,
#627,#628,#629,#630,#631,#632,#633,#634,#635,#636,#637));
#656=CLOSED_SHELL('',(#638,#639,#640,#641,#642,#643));
#657=CLOSED_SHELL('',(#644,#645,#646,#647,#648,#649,#650,#651,#652,#653,
#654));
#658=DERIVED_UNIT_ELEMENT(#660,1.);
#659=DERIVED_UNIT_ELEMENT(#1055,-3.);
#660=(
MASS_UNIT()
NAMED_UNIT(*)
SI_UNIT(.KILO.,.GRAM.)
);
#661=DERIVED_UNIT((#658,#659));
#662=MEASURE_REPRESENTATION_ITEM('density measure',
POSITIVE_RATIO_MEASURE(7850.),#661);
#663=PROPERTY_DEFINITION_REPRESENTATION(#668,#665);
#664=PROPERTY_DEFINITION_REPRESENTATION(#669,#666);
#665=REPRESENTATION('material name',(#667),#1052);
#666=REPRESENTATION('density',(#662),#1052);
#667=DESCRIPTIVE_REPRESENTATION_ITEM('Steel','Steel');
#668=PROPERTY_DEFINITION('material property','material name',#1062);
#669=PROPERTY_DEFINITION('material property','density of part',#1062);
#670=AXIS2_PLACEMENT_3D('',#871,#709,#710);
#671=AXIS2_PLACEMENT_3D('',#872,#711,#712);
#672=AXIS2_PLACEMENT_3D('',#881,#717,#718);
#673=AXIS2_PLACEMENT_3D('',#911,#734,#735);
#674=AXIS2_PLACEMENT_3D('',#915,#738,#739);
#675=AXIS2_PLACEMENT_3D('',#924,#744,#745);
#676=AXIS2_PLACEMENT_3D('',#927,#748,#749);
#677=AXIS2_PLACEMENT_3D('',#929,#751,#752);
#678=AXIS2_PLACEMENT_3D('',#931,#754,#755);
#679=AXIS2_PLACEMENT_3D('',#932,#756,#757);
#680=AXIS2_PLACEMENT_3D('',#941,#762,#763);
#681=AXIS2_PLACEMENT_3D('',#944,#766,#767);
#682=AXIS2_PLACEMENT_3D('',#946,#769,#770);
#683=AXIS2_PLACEMENT_3D('',#948,#772,#773);
#684=AXIS2_PLACEMENT_3D('',#949,#774,#775);
#685=AXIS2_PLACEMENT_3D('',#958,#780,#781);
#686=AXIS2_PLACEMENT_3D('',#961,#784,#785);
#687=AXIS2_PLACEMENT_3D('',#963,#787,#788);
#688=AXIS2_PLACEMENT_3D('',#965,#790,#791);
#689=AXIS2_PLACEMENT_3D('',#966,#792,#793);
#690=AXIS2_PLACEMENT_3D('',#970,#796,#797);
#691=AXIS2_PLACEMENT_3D('',#972,#799,#800);
#692=AXIS2_PLACEMENT_3D('',#973,#801,#802);
#693=AXIS2_PLACEMENT_3D('',#982,#807,#808);
#694=AXIS2_PLACEMENT_3D('',#991,#813,#814);
#695=AXIS2_PLACEMENT_3D('',#994,#817,#818);
#696=AXIS2_PLACEMENT_3D('',#996,#820,#821);
#697=AXIS2_PLACEMENT_3D('',#998,#823,#824);
#698=AXIS2_PLACEMENT_3D('',#999,#825,#826);
#699=AXIS2_PLACEMENT_3D('',#1008,#831,#832);
#700=AXIS2_PLACEMENT_3D('',#1014,#836,#837);
#701=AXIS2_PLACEMENT_3D('',#1018,#840,#841);
#702=AXIS2_PLACEMENT_3D('',#1022,#844,#845);
#703=AXIS2_PLACEMENT_3D('',#1024,#847,#848);
#704=AXIS2_PLACEMENT_3D('',#1033,#853,#854);
#705=AXIS2_PLACEMENT_3D('',#1039,#858,#859);
#706=AXIS2_PLACEMENT_3D('',#1043,#862,#863);
#707=AXIS2_PLACEMENT_3D('',#1047,#866,#867);
#708=AXIS2_PLACEMENT_3D('',#1049,#869,#870);
#709=DIRECTION('axis',(0.,0.,1.));
#710=DIRECTION('refdir',(1.,0.,0.));
#711=DIRECTION('center_axis',(0.,0.,-1.));
#712=DIRECTION('ref_axis',(-1.,0.,0.));
#713=DIRECTION('',(1.,0.,0.));
#714=DIRECTION('',(0.,1.,0.));
#715=DIRECTION('',(-1.,0.,0.));
#716=DIRECTION('',(0.,-1.,0.));
#717=DIRECTION('center_axis',(0.,-1.,2.22044604925031E-16));
#718=DIRECTION('ref_axis',(0.,-2.22044604925031E-16,-1.));
#719=DIRECTION('',(0.,-2.22044604925031E-16,-1.));
#720=DIRECTION('',(1.,0.,0.));
#721=DIRECTION('',(0.,2.22044604925031E-16,1.));
#722=DIRECTION('',(0.,2.22044604925031E-16,1.));
#723=DIRECTION('',(1.,0.,0.));
#724=DIRECTION('',(0.,-2.22044604925031E-16,-1.));
#725=DIRECTION('',(-1.,0.,0.));
#726=DIRECTION('',(0.,2.22044604925031E-16,1.));
#727=DIRECTION('',(1.,0.,0.));
#728=DIRECTION('',(0.,-2.22044604925031E-16,-1.));
#729=DIRECTION('',(-1.,0.,0.));
#730=DIRECTION('',(0.,2.22044604925031E-16,1.));
#731=DIRECTION('',(1.,0.,0.));
#732=DIRECTION('',(0.,-2.22044604925031E-16,-1.));
#733=DIRECTION('',(-1.,0.,0.));
#734=DIRECTION('center_axis',(1.,0.,0.));
#735=DIRECTION('ref_axis',(0.,-1.,2.22044604925031E-16));
#736=DIRECTION('',(0.,2.22044604925031E-16,1.));
#737=DIRECTION('',(0.,1.,-2.22044604925031E-16));
#738=DIRECTION('center_axis',(0.,-1.,2.22044604925031E-16));
#739=DIRECTION('ref_axis',(0.,-2.22044604925031E-16,-1.));
#740=DIRECTION('',(1.,0.,0.));
#741=DIRECTION('',(0.,2.22044604925031E-16,1.));
#742=DIRECTION('',(-1.,0.,0.));
#743=DIRECTION('',(0.,-2.22044604925031E-16,-1.));
#744=DIRECTION('center_axis',(1.,0.,0.));
#745=DIRECTION('ref_axis',(0.,-1.,2.22044604925031E-16));
#746=DIRECTION('',(0.,1.,-2.22044604925031E-16));
#747=DIRECTION('',(0.,1.,-2.22044604925031E-16));
#748=DIRECTION('center_axis',(0.,-2.22044604925031E-16,-1.));
#749=DIRECTION('ref_axis',(0.,1.,-2.22044604925031E-16));
#750=DIRECTION('',(0.,1.,-2.22044604925031E-16));
#751=DIRECTION('center_axis',(-1.,0.,0.));
#752=DIRECTION('ref_axis',(0.,1.,-2.22044604925031E-16));
#753=DIRECTION('',(0.,1.,-2.22044604925031E-16));
#754=DIRECTION('center_axis',(0.,2.22044604925031E-16,1.));
#755=DIRECTION('ref_axis',(0.,-1.,2.22044604925031E-16));
#756=DIRECTION('center_axis',(0.,-1.,2.22044604925031E-16));
#757=DIRECTION('ref_axis',(0.,-2.22044604925031E-16,-1.));
#758=DIRECTION('',(1.,0.,0.));
#759=DIRECTION('',(0.,2.22044604925031E-16,1.));
#760=DIRECTION('',(-1.,0.,0.));
#761=DIRECTION('',(0.,-2.22044604925031E-16,-1.));
#762=DIRECTION('center_axis',(1.,0.,0.));
#763=DIRECTION('ref_axis',(0.,-1.,2.22044604925031E-16));
#764=DIRECTION('',(0.,1.,-2.22044604925031E-16));
#765=DIRECTION('',(0.,1.,-2.22044604925031E-16));
#766=DIRECTION('center_axis',(0.,-2.22044604925031E-16,-1.));
#767=DIRECTION('ref_axis',(0.,1.,-2.22044604925031E-16));
#768=DIRECTION('',(0.,1.,-2.22044604925031E-16));
#769=DIRECTION('center_axis',(-1.,0.,0.));
#770=DIRECTION('ref_axis',(0.,1.,-2.22044604925031E-16));
#771=DIRECTION('',(0.,1.,-2.22044604925031E-16));
#772=DIRECTION('center_axis',(0.,2.22044604925031E-16,1.));
#773=DIRECTION('ref_axis',(0.,-1.,2.22044604925031E-16));
#774=DIRECTION('center_axis',(0.,-1.,2.22044604925031E-16));
#775=DIRECTION('ref_axis',(0.,-2.22044604925031E-16,-1.));
#776=DIRECTION('',(1.,0.,0.));
#777=DIRECTION('',(0.,2.22044604925031E-16,1.));
#778=DIRECTION('',(-1.,0.,0.));
#779=DIRECTION('',(0.,-2.22044604925031E-16,-1.));
#780=DIRECTION('center_axis',(1.,0.,0.));
#781=DIRECTION('ref_axis',(0.,-1.,2.22044604925031E-16));
#782=DIRECTION('',(0.,1.,-2.22044604925031E-16));
#783=DIRECTION('',(0.,1.,-2.22044604925031E-16));
#784=DIRECTION('center_axis',(0.,-2.22044604925031E-16,-1.));
#785=DIRECTION('ref_axis',(0.,1.,-2.22044604925031E-16));
#786=DIRECTION('',(0.,1.,-2.22044604925031E-16));
#787=DIRECTION('center_axis',(-1.,0.,0.));
#788=DIRECTION('ref_axis',(0.,1.,-2.22044604925031E-16));
#789=DIRECTION('',(0.,1.,-2.22044604925031E-16));
#790=DIRECTION('center_axis',(0.,2.22044604925031E-16,1.));
#791=DIRECTION('ref_axis',(0.,-1.,2.22044604925031E-16));
#792=DIRECTION('center_axis',(0.,-1.,2.22044604925031E-16));
#793=DIRECTION('ref_axis',(0.,-2.22044604925031E-16,-1.));
#794=DIRECTION('',(0.,-2.22044604925031E-16,-1.));
#795=DIRECTION('',(-1.,0.,0.));
#796=DIRECTION('center_axis',(-1.,0.,0.));
#797=DIRECTION('ref_axis',(0.,1.,-2.22044604925031E-16));
#798=DIRECTION('',(0.,1.,-2.22044604925031E-16));
#799=DIRECTION('center_axis',(0.,2.22044604925031E-16,1.));
#800=DIRECTION('ref_axis',(0.,-1.,2.22044604925031E-16));
#801=DIRECTION('center_axis',(0.,-1.11022302462516E-16,1.));
#802=DIRECTION('ref_axis',(0.,1.,1.11022302462516E-16));
#803=DIRECTION('',(-1.,0.,0.));
#804=DIRECTION('',(0.,-1.,-1.11022302462516E-16));
#805=DIRECTION('',(1.,0.,0.));
#806=DIRECTION('',(0.,1.,1.11022302462516E-16));
#807=DIRECTION('center_axis',(0.,-1.11022302462516E-16,1.));
#808=DIRECTION('ref_axis',(0.,1.,1.11022302462516E-16));
#809=DIRECTION('',(1.,0.,0.));
#810=DIRECTION('',(0.,-1.,-1.11022302462516E-16));
#811=DIRECTION('',(-1.,0.,0.));
#812=DIRECTION('',(0.,1.,1.11022302462516E-16));
#813=DIRECTION('center_axis',(-1.,0.,0.));
#814=DIRECTION('ref_axis',(0.,-1.11022302462516E-16,1.));
#815=DIRECTION('',(0.,1.11022302462516E-16,-1.));
#816=DIRECTION('',(0.,1.11022302462516E-16,-1.));
#817=DIRECTION('center_axis',(0.,1.,1.11022302462516E-16));
#818=DIRECTION('ref_axis',(0.,1.11022302462516E-16,-1.));
#819=DIRECTION('',(0.,1.11022302462516E-16,-1.));
#820=DIRECTION('center_axis',(1.,0.,0.));
#821=DIRECTION('ref_axis',(0.,1.11022302462516E-16,-1.));
#822=DIRECTION('',(0.,1.11022302462516E-16,-1.));
#823=DIRECTION('center_axis',(0.,-1.,-1.11022302462516E-16));
#824=DIRECTION('ref_axis',(0.,-1.11022302462516E-16,1.));
#825=DIRECTION('center_axis',(-1.,9.34924652315921E-17,0.));
#826=DIRECTION('ref_axis',(0.,0.,1.));
#827=DIRECTION('',(-9.34924652315921E-17,-1.,0.));
#828=DIRECTION('',(0.,0.,1.));
#829=DIRECTION('',(9.34924652315921E-17,1.,0.));
#830=DIRECTION('',(0.,0.,-1.));
#831=DIRECTION('center_axis',(9.34924652315921E-17,1.,0.));
#832=DIRECTION('ref_axis',(0.,0.,-1.));
#833=DIRECTION('',(-1.,9.34924652315921E-17,0.));
#834=DIRECTION('',(1.,-9.34924652315921E-17,0.));
#835=DIRECTION('',(0.,0.,-1.));
#836=DIRECTION('center_axis',(0.,0.,1.));
#837=DIRECTION('ref_axis',(9.34924652315921E-17,1.,0.));
#838=DIRECTION('',(1.,-9.34924652315921E-17,0.));
#839=DIRECTION('',(9.34924652315921E-17,1.,0.));
#840=DIRECTION('center_axis',(1.,-9.34924652315921E-17,0.));
#841=DIRECTION('ref_axis',(0.,0.,-1.));
#842=DIRECTION('',(9.34924652315921E-17,1.,0.));
#843=DIRECTION('',(0.,0.,-1.));
#844=DIRECTION('center_axis',(-9.34924652315921E-17,-1.,0.));
#845=DIRECTION('ref_axis',(0.,0.,1.));
#846=DIRECTION('',(1.,-9.34924652315921E-17,0.));
#847=DIRECTION('center_axis',(0.,0.,-1.));
#848=DIRECTION('ref_axis',(-1.,0.,0.));
#849=DIRECTION('',(1.,-9.34924652315921E-17,0.));
#850=DIRECTION('',(9.34924652315921E-17,1.,0.));
#851=DIRECTION('',(-1.,9.34924652315921E-17,0.));
#852=DIRECTION('',(-9.34924652315921E-17,-1.,0.));
#853=DIRECTION('center_axis',(-1.,9.34924652315921E-17,0.));
#854=DIRECTION('ref_axis',(0.,0.,1.));
#855=DIRECTION('',(0.,0.,-1.));
#856=DIRECTION('',(-9.34924652315921E-17,-1.,0.));
#857=DIRECTION('',(0.,0.,-1.));
#858=DIRECTION('center_axis',(9.34924652315921E-17,1.,0.));
#859=DIRECTION('ref_axis',(0.,0.,-1.));
#860=DIRECTION('',(0.,0.,-1.));
#861=DIRECTION('',(-1.,9.34924652315921E-17,0.));
#862=DIRECTION('center_axis',(0.,0.,1.));
#863=DIRECTION('ref_axis',(9.34924652315921E-17,1.,0.));
#864=DIRECTION('',(1.,-9.34924652315921E-17,0.));
#865=DIRECTION('',(9.34924652315921E-17,1.,0.));
#866=DIRECTION('center_axis',(1.,-9.34924652315921E-17,0.));
#867=DIRECTION('ref_axis',(0.,0.,-1.));
#868=DIRECTION('',(0.,0.,-1.));
#869=DIRECTION('center_axis',(-9.34924652315921E-17,-1.,0.));
#870=DIRECTION('ref_axis',(0.,0.,1.));
#871=CARTESIAN_POINT('',(0.,0.,0.));
#872=CARTESIAN_POINT('Origin',(50.,220.,292.));
#873=CARTESIAN_POINT('',(-25.,306.,292.));
#874=CARTESIAN_POINT('',(219.,306.,292.));
#875=CARTESIAN_POINT('',(73.5,306.,292.));
#876=CARTESIAN_POINT('',(-25.,304.,292.));
#877=CARTESIAN_POINT('',(-25.,262.5,292.));
#878=CARTESIAN_POINT('',(219.,304.,292.));
#879=CARTESIAN_POINT('',(73.5,304.,292.));
#880=CARTESIAN_POINT('',(219.,262.5,292.));
#881=CARTESIAN_POINT('Origin',(97.,304.,172.));
#882=CARTESIAN_POINT('',(-25.,304.,50.));
#883=CARTESIAN_POINT('',(-25.,304.,172.));
#884=CARTESIAN_POINT('',(219.,304.,50.));
#885=CARTESIAN_POINT('',(97.,304.,50.));
#886=CARTESIAN_POINT('',(219.,304.,172.));
#887=CARTESIAN_POINT('',(25.,304.,154.));
#888=CARTESIAN_POINT('',(25.,304.,194.));
#889=CARTESIAN_POINT('',(25.,304.,173.));
#890=CARTESIAN_POINT('',(65.,304.,194.));
#891=CARTESIAN_POINT('',(71.,304.,194.));
#892=CARTESIAN_POINT('',(65.,304.,154.));
#893=CARTESIAN_POINT('',(65.,304.,173.));
#894=CARTESIAN_POINT('',(71.,304.,154.));
#895=CARTESIAN_POINT('',(150.,304.,111.));
#896=CARTESIAN_POINT('',(150.,304.,244.));
#897=CARTESIAN_POINT('',(150.,304.,174.75));
#898=CARTESIAN_POINT('',(180.,304.,244.));
#899=CARTESIAN_POINT('',(131.,304.,244.));
#900=CARTESIAN_POINT('',(180.,304.,111.));
#901=CARTESIAN_POINT('',(180.,304.,174.75));
#902=CARTESIAN_POINT('',(131.,304.,111.));
#903=CARTESIAN_POINT('',(92.9415105883168,304.,134.581301968495));
#904=CARTESIAN_POINT('',(92.9415105883168,304.,214.581301968495));
#905=CARTESIAN_POINT('',(92.9415105883168,304.,173.290650984248));
#906=CARTESIAN_POINT('',(114.941510588317,304.,214.581301968495));
#907=CARTESIAN_POINT('',(100.470755294158,304.,214.581301968495));
#908=CARTESIAN_POINT('',(114.941510588317,304.,134.581301968495));
#909=CARTESIAN_POINT('',(114.941510588317,304.,173.290650984248));
#910=CARTESIAN_POINT('',(100.470755294158,304.,134.581301968495));
#911=CARTESIAN_POINT('Origin',(-25.,305.,172.));
#912=CARTESIAN_POINT('',(-25.,306.,50.));
#913=CARTESIAN_POINT('',(-25.,306.,172.));
#914=CARTESIAN_POINT('',(-25.,305.,50.));
#915=CARTESIAN_POINT('Origin',(103.941510588317,301.,174.581301968495));
#916=CARTESIAN_POINT('',(92.9415105883168,301.,134.581301968495));
#917=CARTESIAN_POINT('',(114.941510588317,301.,134.581301968495));
#918=CARTESIAN_POINT('',(103.941510588317,301.,134.581301968495));
#919=CARTESIAN_POINT('',(114.941510588317,301.,214.581301968495));
#920=CARTESIAN_POINT('',(114.941510588317,301.,174.581301968495));
#921=CARTESIAN_POINT('',(92.9415105883168,301.,214.581301968495));
#922=CARTESIAN_POINT('',(103.941510588317,301.,214.581301968495));
#923=CARTESIAN_POINT('',(92.9415105883168,301.,174.581301968495));
#924=CARTESIAN_POINT('Origin',(92.9415105883168,302.5,174.581301968495));
#925=CARTESIAN_POINT('',(92.9415105883168,302.5,214.581301968495));
#926=CARTESIAN_POINT('',(92.9415105883168,302.5,134.581301968495));
#927=CARTESIAN_POINT('Origin',(103.941510588317,302.5,214.581301968495));
#928=CARTESIAN_POINT('',(114.941510588317,302.5,214.581301968495));
#929=CARTESIAN_POINT('Origin',(114.941510588317,302.5,174.581301968495));
#930=CARTESIAN_POINT('',(114.941510588317,302.5,134.581301968495));
#931=CARTESIAN_POINT('Origin',(103.941510588317,302.5,134.581301968495));
#932=CARTESIAN_POINT('Origin',(165.,297.,177.5));
#933=CARTESIAN_POINT('',(150.,297.,111.));
#934=CARTESIAN_POINT('',(180.,297.,111.));
#935=CARTESIAN_POINT('',(165.,297.,111.));
#936=CARTESIAN_POINT('',(180.,297.,244.));
#937=CARTESIAN_POINT('',(180.,297.,177.5));
#938=CARTESIAN_POINT('',(150.,297.,244.));
#939=CARTESIAN_POINT('',(165.,297.,244.));
#940=CARTESIAN_POINT('',(150.,297.,177.5));
#941=CARTESIAN_POINT('Origin',(150.,300.5,177.5));
#942=CARTESIAN_POINT('',(150.,300.5,244.));
#943=CARTESIAN_POINT('',(150.,300.5,111.));
#944=CARTESIAN_POINT('Origin',(165.,300.5,244.));
#945=CARTESIAN_POINT('',(180.,300.5,244.));
#946=CARTESIAN_POINT('Origin',(180.,300.5,177.5));
#947=CARTESIAN_POINT('',(180.,300.5,111.));
#948=CARTESIAN_POINT('Origin',(165.,300.5,111.));
#949=CARTESIAN_POINT('Origin',(45.,299.,174.));
#950=CARTESIAN_POINT('',(25.,299.,154.));
#951=CARTESIAN_POINT('',(65.,299.,154.));
#952=CARTESIAN_POINT('',(45.,299.,154.));
#953=CARTESIAN_POINT('',(65.,299.,194.));
#954=CARTESIAN_POINT('',(65.,299.,174.));
#955=CARTESIAN_POINT('',(25.,299.,194.));
#956=CARTESIAN_POINT('',(45.,299.,194.));
#957=CARTESIAN_POINT('',(25.,299.,174.));
#958=CARTESIAN_POINT('Origin',(25.,301.5,174.));
#959=CARTESIAN_POINT('',(25.,301.5,194.));
#960=CARTESIAN_POINT('',(25.,301.5,154.));
#961=CARTESIAN_POINT('Origin',(45.,301.5,194.));
#962=CARTESIAN_POINT('',(65.,301.5,194.));
#963=CARTESIAN_POINT('Origin',(65.,301.5,174.));
#964=CARTESIAN_POINT('',(65.,301.5,154.));
#965=CARTESIAN_POINT('Origin',(45.,301.5,154.));
#966=CARTESIAN_POINT('Origin',(97.,306.,172.));
#967=CARTESIAN_POINT('',(219.,306.,50.));
#968=CARTESIAN_POINT('',(219.,306.,172.));
#969=CARTESIAN_POINT('',(97.,306.,50.));
#970=CARTESIAN_POINT('Origin',(219.,305.,172.));
#971=CARTESIAN_POINT('',(219.,305.,50.));
#972=CARTESIAN_POINT('Origin',(97.,305.,50.));
#973=CARTESIAN_POINT('Origin',(-50.,222.178893568691,110.904867452294));
#974=CARTESIAN_POINT('',(25.,292.178893568691,110.904867452294));
#975=CARTESIAN_POINT('',(-125.,292.178893568691,110.904867452294));
#976=CARTESIAN_POINT('',(-50.,292.178893568691,110.904867452294));
#977=CARTESIAN_POINT('',(-125.,152.178893568691,110.904867452294));
#978=CARTESIAN_POINT('',(-125.,222.178893568691,110.904867452294));
#979=CARTESIAN_POINT('',(25.,152.178893568691,110.904867452294));
#980=CARTESIAN_POINT('',(-50.,152.178893568691,110.904867452294));
#981=CARTESIAN_POINT('',(25.,222.178893568691,110.904867452294));
#982=CARTESIAN_POINT('Origin',(-50.,222.178893568691,24.9048674522937));
#983=CARTESIAN_POINT('',(-125.,292.178893568691,24.9048674522937));
#984=CARTESIAN_POINT('',(25.,292.178893568691,24.9048674522937));
#985=CARTESIAN_POINT('',(-50.,292.178893568691,24.9048674522937));
#986=CARTESIAN_POINT('',(25.,152.178893568691,24.9048674522937));
#987=CARTESIAN_POINT('',(25.,222.178893568691,24.9048674522937));
#988=CARTESIAN_POINT('',(-125.,152.178893568691,24.9048674522937));
#989=CARTESIAN_POINT('',(-50.,152.178893568691,24.9048674522937));
#990=CARTESIAN_POINT('',(-125.,222.178893568691,24.9048674522937));
#991=CARTESIAN_POINT('Origin',(25.,222.178893568691,67.9048674522937));
#992=CARTESIAN_POINT('',(25.,152.178893568691,67.9048674522937));
#993=CARTESIAN_POINT('',(25.,292.178893568691,67.9048674522937));
#994=CARTESIAN_POINT('Origin',(-50.,152.178893568691,67.9048674522937));
#995=CARTESIAN_POINT('',(-125.,152.178893568691,67.9048674522937));
#996=CARTESIAN_POINT('Origin',(-125.,222.178893568691,67.9048674522937));
#997=CARTESIAN_POINT('',(-125.,292.178893568691,67.9048674522937));
#998=CARTESIAN_POINT('Origin',(-50.,292.178893568691,67.9048674522937));
#999=CARTESIAN_POINT('Origin',(246.,220.,234.5));
#1000=CARTESIAN_POINT('',(246.,311.,367.));
#1001=CARTESIAN_POINT('',(246.,129.,367.));
#1002=CARTESIAN_POINT('',(246.,220.,367.));
#1003=CARTESIAN_POINT('',(246.,311.,5.99999999999998));
#1004=CARTESIAN_POINT('',(246.,311.,234.5));
#1005=CARTESIAN_POINT('',(246.,129.,5.99999999999998));
#1006=CARTESIAN_POINT('',(246.,220.,6.));
#1007=CARTESIAN_POINT('',(246.,129.,234.5));
#1008=CARTESIAN_POINT('Origin',(50.,129.,234.5));
#1009=CARTESIAN_POINT('',(-146.,129.,367.));
#1010=CARTESIAN_POINT('',(50.,129.,367.));
#1011=CARTESIAN_POINT('',(-146.,129.,5.99999999999998));
#1012=CARTESIAN_POINT('',(50.,129.,6.));
#1013=CARTESIAN_POINT('',(-146.,129.,234.5));
#1014=CARTESIAN_POINT('Origin',(50.,220.,5.99999999999999));
#1015=CARTESIAN_POINT('',(-146.,311.,5.99999999999998));
#1016=CARTESIAN_POINT('',(50.,311.,5.99999999999998));
#1017=CARTESIAN_POINT('',(-146.,220.,5.99999999999998));
#1018=CARTESIAN_POINT('Origin',(-146.,220.,234.5));
#1019=CARTESIAN_POINT('',(-146.,311.,367.));
#1020=CARTESIAN_POINT('',(-146.,220.,367.));
#1021=CARTESIAN_POINT('',(-146.,311.,234.5));
#1022=CARTESIAN_POINT('Origin',(50.,311.,234.5));
#1023=CARTESIAN_POINT('',(50.,311.,367.));
#1024=CARTESIAN_POINT('Origin',(50.,220.,367.));
#1025=CARTESIAN_POINT('',(-150.,315.,367.));
#1026=CARTESIAN_POINT('',(250.,315.,367.));
#1027=CARTESIAN_POINT('',(50.,315.,367.));
#1028=CARTESIAN_POINT('',(-150.,125.,367.));
#1029=CARTESIAN_POINT('',(-150.,220.,367.));
#1030=CARTESIAN_POINT('',(250.,125.,367.));
#1031=CARTESIAN_POINT('',(50.,125.,367.));
#1032=CARTESIAN_POINT('',(250.,220.,367.));
#1033=CARTESIAN_POINT('Origin',(250.,220.,234.5));
#1034=CARTESIAN_POINT('',(250.,125.,1.99999999999999));
#1035=CARTESIAN_POINT('',(250.,125.,234.5));
#1036=CARTESIAN_POINT('',(250.,315.,1.99999999999999));
#1037=CARTESIAN_POINT('',(250.,220.,1.99999999999999));
#1038=CARTESIAN_POINT('',(250.,315.,234.5));
#1039=CARTESIAN_POINT('Origin',(50.,125.,234.5));
#1040=CARTESIAN_POINT('',(-150.,125.,1.99999999999999));
#1041=CARTESIAN_POINT('',(-150.,125.,234.5));
#1042=CARTESIAN_POINT('',(50.,125.,1.99999999999999));
#1043=CARTESIAN_POINT('Origin',(50.,220.,1.99999999999999));
#1044=CARTESIAN_POINT('',(-150.,315.,1.99999999999999));
#1045=CARTESIAN_POINT('',(50.,315.,1.99999999999999));
#1046=CARTESIAN_POINT('',(-150.,220.,1.99999999999999));
#1047=CARTESIAN_POINT('Origin',(-150.,220.,234.5));
#1048=CARTESIAN_POINT('',(-150.,315.,234.5));
#1049=CARTESIAN_POINT('Origin',(50.,315.,234.5));
#1050=UNCERTAINTY_MEASURE_WITH_UNIT(LENGTH_MEASURE(0.01),#1054,
'DISTANCE_ACCURACY_VALUE',
'Maximum model space distance between geometric entities at asserted c
onnectivities');
#1051=UNCERTAINTY_MEASURE_WITH_UNIT(LENGTH_MEASURE(0.01),#1054,
'DISTANCE_ACCURACY_VALUE',
'Maximum model space distance between geometric entities at asserted c
onnectivities');
#1052=(
GEOMETRIC_REPRESENTATION_CONTEXT(3)
GLOBAL_UNCERTAINTY_ASSIGNED_CONTEXT((#1050))
GLOBAL_UNIT_ASSIGNED_CONTEXT((#1054,#1056,#1057))
REPRESENTATION_CONTEXT('','3D')
);
#1053=(
GEOMETRIC_REPRESENTATION_CONTEXT(3)
GLOBAL_UNCERTAINTY_ASSIGNED_CONTEXT((#1051))
GLOBAL_UNIT_ASSIGNED_CONTEXT((#1054,#1056,#1057))
REPRESENTATION_CONTEXT('','3D')
);
#1054=(
LENGTH_UNIT()
NAMED_UNIT(*)
SI_UNIT(.MILLI.,.METRE.)
);
#1055=(
LENGTH_UNIT()
NAMED_UNIT(*)
SI_UNIT($,.METRE.)
);
#1056=(
NAMED_UNIT(*)
PLANE_ANGLE_UNIT()
SI_UNIT($,.RADIAN.)
);
#1057=(
NAMED_UNIT(*)
SI_UNIT($,.STERADIAN.)
SOLID_ANGLE_UNIT()
);
#1058=SHAPE_DEFINITION_REPRESENTATION(#1059,#1060);
#1059=PRODUCT_DEFINITION_SHAPE('',$,#1062);
#1060=SHAPE_REPRESENTATION('',(#670),#1052);
#1061=PRODUCT_DEFINITION_CONTEXT('part definition',#1066,'design');
#1062=PRODUCT_DEFINITION('2026-03-28-23-02-03-643','Phase 1',#1063,#1061);
#1063=PRODUCT_DEFINITION_FORMATION('',$,#1068);
#1064=PRODUCT_RELATED_PRODUCT_CATEGORY('Phase 1','Phase 1',(#1068));
#1065=APPLICATION_PROTOCOL_DEFINITION('international standard',
'automotive_design',2009,#1066);
#1066=APPLICATION_CONTEXT(
'Core Data for Automotive Mechanical Design Process');
#1067=PRODUCT_CONTEXT('part definition',#1066,'mechanical');
#1068=PRODUCT('2026-03-28-23-02-03-643','Phase 1',$,(#1067));
#1069=PRESENTATION_STYLE_ASSIGNMENT((#1070));
#1070=SURFACE_STYLE_USAGE(.BOTH.,#1071);
#1071=SURFACE_SIDE_STYLE('',(#1072));
#1072=SURFACE_STYLE_FILL_AREA(#1073);
#1073=FILL_AREA_STYLE('Steel - Satin',(#1074));
#1074=FILL_AREA_STYLE_COLOUR('Steel - Satin',#1075);
#1075=COLOUR_RGB('Steel - Satin',0.627450980392157,0.627450980392157,0.627450980392157);
ENDSEC;
END-ISO-10303-21;
